<svg width="103" height="58" viewBox="0 0 103 58" fill="none" xmlns="http://www.w3.org/2000/svg">
<path d="M11.704 27.336C10.192 27.336 8.78267 27.0933 7.476 26.608C6.188 26.104 5.068 25.3947 4.116 24.48C3.164 23.5653 2.41733 22.492 1.876 21.26C1.35333 20.028 1.092 18.6747 1.092 17.2C1.092 15.7253 1.35333 14.372 1.876 13.14C2.41733 11.908 3.164 10.8347 4.116 9.92C5.08667 9.00533 6.216 8.30533 7.504 7.82C8.792 7.316 10.2013 7.064 11.732 7.064C13.4307 7.064 14.9613 7.36267 16.324 7.96C17.7053 8.53867 18.8627 9.39733 19.796 10.536L16.884 13.224C16.212 12.4587 15.4653 11.8893 14.644 11.516C13.8227 11.124 12.9267 10.928 11.956 10.928C11.0413 10.928 10.2013 11.0773 9.436 11.376C8.67067 11.6747 8.008 12.104 7.448 12.664C6.888 13.224 6.44933 13.8867 6.132 14.652C5.83333 15.4173 5.684 16.2667 5.684 17.2C5.684 18.1333 5.83333 18.9827 6.132 19.748C6.44933 20.5133 6.888 21.176 7.448 21.736C8.008 22.296 8.67067 22.7253 9.436 23.024C10.2013 23.3227 11.0413 23.472 11.956 23.472C12.9267 23.472 13.8227 23.2853 14.644 22.912C15.4653 22.52 16.212 21.932 16.884 21.148L19.796 23.836C18.8627 24.9747 17.7053 25.8427 16.324 26.44C14.9613 27.0373 13.4213 27.336 11.704 27.336ZM29.5277 27V11.096H23.2557V7.4H40.3357V11.096H34.0637V27H29.5277ZM49.6363 22.52L49.3843 17.284L58.7643 7.4H63.8043L55.3483 16.5L52.8283 19.188L49.6363 22.52ZM45.5763 27V7.4H50.0843V27H45.5763ZM58.9883 27L52.0163 18.46L54.9843 15.24L64.2803 27H58.9883Z" fill="white"/>
<path d="M6.524 40.22H15.932V43.86H6.524V40.22ZM6.86 51H2.324V31.4H17.136V35.04H6.86V51ZM26.0393 51.224C24.322 51.224 22.81 50.888 21.5033 50.216C20.2153 49.544 19.2167 48.6293 18.5073 47.472C17.798 46.296 17.4433 44.9613 17.4433 43.468C17.4433 41.956 17.7887 40.6213 18.4793 39.464C19.1887 38.288 20.15 37.3733 21.3633 36.72C22.5767 36.048 23.9487 35.712 25.4793 35.712C26.954 35.712 28.2793 36.0293 29.4553 36.664C30.65 37.28 31.5927 38.176 32.2833 39.352C32.974 40.5093 33.3193 41.9 33.3193 43.524C33.3193 43.692 33.31 43.888 33.2913 44.112C33.2727 44.3173 33.254 44.5133 33.2353 44.7H20.9993V42.152H30.9393L29.2593 42.908C29.2593 42.124 29.1007 41.4427 28.7833 40.864C28.466 40.2853 28.0273 39.8373 27.4673 39.52C26.9073 39.184 26.254 39.016 25.5073 39.016C24.7607 39.016 24.098 39.184 23.5193 39.52C22.9593 39.8373 22.5207 40.2947 22.2033 40.892C21.886 41.4707 21.7273 42.1613 21.7273 42.964V43.636C21.7273 44.4573 21.9047 45.1853 22.2593 45.82C22.6327 46.436 23.146 46.912 23.7993 47.248C24.4713 47.5653 25.2553 47.724 26.1513 47.724C26.954 47.724 27.654 47.6027 28.2513 47.36C28.8673 47.1173 29.4273 46.7533 29.9313 46.268L32.2553 48.788C31.5647 49.572 30.6967 50.1787 29.6513 50.608C28.606 51.0187 27.402 51.224 26.0393 51.224ZM35.2474 51V35.936H39.4194V40.192L38.8314 38.96C39.2794 37.896 39.9981 37.0933 40.9874 36.552C41.9767 35.992 43.1807 35.712 44.5994 35.712V39.744C44.4127 39.7253 44.2447 39.716 44.0954 39.716C43.9461 39.6973 43.7874 39.688 43.6194 39.688C42.4247 39.688 41.4541 40.0333 40.7074 40.724C39.9794 41.396 39.6154 42.4507 39.6154 43.888V51H35.2474ZM46.244 51V35.936H50.416V40.192L49.828 38.96C50.276 37.896 50.9946 37.0933 51.984 36.552C52.9733 35.992 54.1773 35.712 55.596 35.712V39.744C55.4093 39.7253 55.2413 39.716 55.092 39.716C54.9426 39.6973 54.784 39.688 54.616 39.688C53.4213 39.688 52.4506 40.0333 51.704 40.724C50.976 41.396 50.612 42.4507 50.612 43.888V51H46.244ZM63.6786 51.224C62.4279 51.224 61.3079 50.9813 60.3186 50.496C59.3479 50.0107 58.5919 49.2733 58.0506 48.284C57.5092 47.276 57.2386 45.9973 57.2386 44.448V35.936H61.6066V43.804C61.6066 45.0547 61.8679 45.9787 62.3906 46.576C62.9319 47.1547 63.6879 47.444 64.6586 47.444C65.3306 47.444 65.9279 47.304 66.4506 47.024C66.9732 46.7253 67.3839 46.2773 67.6826 45.68C67.9812 45.064 68.1306 44.2987 68.1306 43.384V35.936H72.4986V51H68.3546V46.856L69.1106 48.06C68.6066 49.1053 67.8599 49.8987 66.8706 50.44C65.8999 50.9627 64.8359 51.224 63.6786 51.224ZM94.8572 35.712C96.0519 35.712 97.1066 35.9547 98.0212 36.44C98.9546 36.9067 99.6826 37.6347 100.205 38.624C100.747 39.5947 101.017 40.8453 101.017 42.376V51H96.6492V43.048C96.6492 41.8347 96.3972 40.9387 95.8932 40.36C95.3892 39.7813 94.6799 39.492 93.7652 39.492C93.1306 39.492 92.5612 39.6413 92.0572 39.94C91.5532 40.22 91.1612 40.6493 90.8812 41.228C90.6012 41.8067 90.4612 42.544 90.4612 43.44V51H86.0932V43.048C86.0932 41.8347 85.8412 40.9387 85.3372 40.36C84.8519 39.7813 84.1519 39.492 83.2372 39.492C82.6026 39.492 82.0332 39.6413 81.5292 39.94C81.0252 40.22 80.6332 40.6493 80.3532 41.228C80.0732 41.8067 79.9332 42.544 79.9332 43.44V51H75.5652V35.936H79.7372V40.052L78.9532 38.848C79.4759 37.8213 80.2132 37.0467 81.1652 36.524C82.1359 35.9827 83.2372 35.712 84.4692 35.712C85.8506 35.712 87.0546 36.0667 88.0812 36.776C89.1266 37.4667 89.8172 38.5307 90.1532 39.968L88.6132 39.548C89.1172 38.372 89.9199 37.4387 91.0212 36.748C92.1412 36.0573 93.4199 35.712 94.8572 35.712Z" fill="#FF9900"/>
</svg>
