<svg width="120" height="58" viewBox="0 0 120 58" fill="none" xmlns="http://www.w3.org/2000/svg">
<path d="M11.704 27.336C10.192 27.336 8.78267 27.0933 7.476 26.608C6.188 26.104 5.068 25.3947 4.116 24.48C3.164 23.5653 2.41733 22.492 1.876 21.26C1.35333 20.028 1.092 18.6747 1.092 17.2C1.092 15.7253 1.35333 14.372 1.876 13.14C2.41733 11.908 3.164 10.8347 4.116 9.92C5.08667 9.00533 6.216 8.30533 7.504 7.82C8.792 7.316 10.2013 7.064 11.732 7.064C13.4307 7.064 14.9613 7.36267 16.324 7.96C17.7053 8.53867 18.8627 9.39733 19.796 10.536L16.884 13.224C16.212 12.4587 15.4653 11.8893 14.644 11.516C13.8227 11.124 12.9267 10.928 11.956 10.928C11.0413 10.928 10.2013 11.0773 9.436 11.376C8.67067 11.6747 8.008 12.104 7.448 12.664C6.888 13.224 6.44933 13.8867 6.132 14.652C5.83333 15.4173 5.684 16.2667 5.684 17.2C5.684 18.1333 5.83333 18.9827 6.132 19.748C6.44933 20.5133 6.888 21.176 7.448 21.736C8.008 22.296 8.67067 22.7253 9.436 23.024C10.2013 23.3227 11.0413 23.472 11.956 23.472C12.9267 23.472 13.8227 23.2853 14.644 22.912C15.4653 22.52 16.212 21.932 16.884 21.148L19.796 23.836C18.8627 24.9747 17.7053 25.8427 16.324 26.44C14.9613 27.0373 13.4213 27.336 11.704 27.336ZM29.5277 27V11.096H23.2557V7.4H40.3357V11.096H34.0637V27H29.5277ZM49.6363 22.52L49.3843 17.284L58.7643 7.4H63.8043L55.3483 16.5L52.8283 19.188L49.6363 22.52ZM45.5763 27V7.4H50.0843V27H45.5763ZM58.9883 27L52.0163 18.46L54.9843 15.24L64.2803 27H58.9883Z" fill="white"/>
<path d="M6.524 40.22H15.932V43.86H6.524V40.22ZM6.86 51H2.324V31.4H17.136V35.04H6.86V51ZM29.2593 51.224C27.542 51.224 26.03 50.888 24.7233 50.216C23.4353 49.544 22.4367 48.6293 21.7273 47.472C21.018 46.296 20.6633 44.9613 20.6633 43.468C20.6633 41.956 21.0087 40.6213 21.6993 39.464C22.4087 38.288 23.37 37.3733 24.5833 36.72C25.7967 36.048 27.1687 35.712 28.6993 35.712C30.174 35.712 31.4993 36.0293 32.6753 36.664C33.87 37.28 34.8127 38.176 35.5033 39.352C36.194 40.5093 36.5393 41.9 36.5393 43.524C36.5393 43.692 36.53 43.888 36.5113 44.112C36.4927 44.3173 36.474 44.5133 36.4553 44.7H24.2193V42.152H34.1593L32.4793 42.908C32.4793 42.124 32.3207 41.4427 32.0033 40.864C31.686 40.2853 31.2473 39.8373 30.6873 39.52C30.1273 39.184 29.474 39.016 28.7273 39.016C27.9807 39.016 27.318 39.184 26.7393 39.52C26.1793 39.8373 25.7407 40.2947 25.4233 40.892C25.106 41.4707 24.9473 42.1613 24.9473 42.964V43.636C24.9473 44.4573 25.1247 45.1853 25.4793 45.82C25.8527 46.436 26.366 46.912 27.0193 47.248C27.6913 47.5653 28.4753 47.724 29.3713 47.724C30.174 47.724 30.874 47.6027 31.4713 47.36C32.0873 47.1173 32.6473 46.7533 33.1513 46.268L35.4753 48.788C34.7847 49.572 33.9167 50.1787 32.8713 50.608C31.826 51.0187 30.622 51.224 29.2593 51.224ZM41.6874 51V35.936H45.8594V40.192L45.2714 38.96C45.7194 37.896 46.4381 37.0933 47.4274 36.552C48.4167 35.992 49.6207 35.712 51.0394 35.712V39.744C50.8527 39.7253 50.6847 39.716 50.5354 39.716C50.3861 39.6973 50.2274 39.688 50.0594 39.688C48.8647 39.688 47.8941 40.0333 47.1474 40.724C46.4194 41.396 46.0554 42.4507 46.0554 43.888V51H41.6874ZM55.904 51V35.936H60.076V40.192L59.488 38.96C59.936 37.896 60.6546 37.0933 61.644 36.552C62.6333 35.992 63.8373 35.712 65.256 35.712V39.744C65.0693 39.7253 64.9013 39.716 64.752 39.716C64.6026 39.6973 64.444 39.688 64.276 39.688C63.0813 39.688 62.1106 40.0333 61.364 40.724C60.636 41.396 60.272 42.4507 60.272 43.888V51H55.904ZM76.5586 51.224C75.3079 51.224 74.1879 50.9813 73.1986 50.496C72.2279 50.0107 71.4719 49.2733 70.9306 48.284C70.3892 47.276 70.1186 45.9973 70.1186 44.448V35.936H74.4866V43.804C74.4866 45.0547 74.7479 45.9787 75.2706 46.576C75.8119 47.1547 76.5679 47.444 77.5386 47.444C78.2106 47.444 78.8079 47.304 79.3306 47.024C79.8532 46.7253 80.2639 46.2773 80.5626 45.68C80.8612 45.064 81.0106 44.2987 81.0106 43.384V35.936H85.3786V51H81.2346V46.856L81.9906 48.06C81.4866 49.1053 80.7399 49.8987 79.7506 50.44C78.7799 50.9627 77.7159 51.224 76.5586 51.224ZM110.957 35.712C112.152 35.712 113.207 35.9547 114.121 36.44C115.055 36.9067 115.783 37.6347 116.305 38.624C116.847 39.5947 117.117 40.8453 117.117 42.376V51H112.749V43.048C112.749 41.8347 112.497 40.9387 111.993 40.36C111.489 39.7813 110.78 39.492 109.865 39.492C109.231 39.492 108.661 39.6413 108.157 39.94C107.653 40.22 107.261 40.6493 106.981 41.228C106.701 41.8067 106.561 42.544 106.561 43.44V51H102.193V43.048C102.193 41.8347 101.941 40.9387 101.437 40.36C100.952 39.7813 100.252 39.492 99.3372 39.492C98.7025 39.492 98.1332 39.6413 97.6292 39.94C97.1252 40.22 96.7332 40.6493 96.4532 41.228C96.1732 41.8067 96.0332 42.544 96.0332 43.44V51H91.6652V35.936H95.8372V40.052L95.0532 38.848C95.5759 37.8213 96.3132 37.0467 97.2652 36.524C98.2359 35.9827 99.3372 35.712 100.569 35.712C101.951 35.712 103.155 36.0667 104.181 36.776C105.227 37.4667 105.917 38.5307 106.253 39.968L104.713 39.548C105.217 38.372 106.02 37.4387 107.121 36.748C108.241 36.0573 109.52 35.712 110.957 35.712Z" fill="#FF9900"/>
<path d="M6.524 40.22V38.22H4.524V40.22H6.524ZM15.932 40.22H17.932V38.22H15.932V40.22ZM15.932 43.86V45.86H17.932V43.86H15.932ZM6.524 43.86H4.524V45.86H6.524V43.86ZM6.86 51V53H8.86V51H6.86ZM2.324 51H0.324V53H2.324V51ZM2.324 31.4V29.4H0.324V31.4H2.324ZM17.136 31.4H19.136V29.4H17.136V31.4ZM17.136 35.04V37.04H19.136V35.04H17.136ZM6.86 35.04V33.04H4.86V35.04H6.86ZM6.524 42.22H15.932V38.22H6.524V42.22ZM13.932 40.22V43.86H17.932V40.22H13.932ZM15.932 41.86H6.524V45.86H15.932V41.86ZM8.524 43.86V40.22H4.524V43.86H8.524ZM6.86 49H2.324V53H6.86V49ZM4.324 51V31.4H0.324V51H4.324ZM2.324 33.4H17.136V29.4H2.324V33.4ZM15.136 31.4V35.04H19.136V31.4H15.136ZM17.136 33.04H6.86V37.04H17.136V33.04ZM4.86 35.04V51H8.86V35.04H4.86ZM24.7233 50.216L23.7982 51.9892L23.8086 51.9946L24.7233 50.216ZM21.7273 47.472L20.0148 48.505L20.0184 48.5111L20.0221 48.5171L21.7273 47.472ZM21.6993 39.464L19.9867 38.431L19.9819 38.4391L21.6993 39.464ZM24.5833 36.72L25.5315 38.4809L25.542 38.4753L25.5523 38.4696L24.5833 36.72ZM32.6753 36.664L31.7255 38.424L31.742 38.433L31.7588 38.4416L32.6753 36.664ZM35.5033 39.352L33.7787 40.3649L33.7859 40.3769L35.5033 39.352ZM36.5113 44.112L38.5031 44.2931L38.5038 44.2856L38.5044 44.2781L36.5113 44.112ZM36.4553 44.7V46.7H38.2653L38.4454 44.899L36.4553 44.7ZM24.2193 44.7H22.2193V46.7H24.2193V44.7ZM24.2193 42.152V40.152H22.2193V42.152H24.2193ZM34.1593 42.152L34.9801 43.9758L34.1593 40.152V42.152ZM32.4793 42.908H30.4793V46.0012L33.3001 44.7318L32.4793 42.908ZM32.0033 40.864L30.2497 41.8257V41.8257L32.0033 40.864ZM30.6873 39.52L29.6584 41.235L29.6797 41.2478L29.7013 41.26L30.6873 39.52ZM26.7393 39.52L27.7254 41.26L27.7345 41.2549L27.7436 41.2496L26.7393 39.52ZM25.4233 40.892L27.177 41.8537L27.1833 41.842L27.1896 41.8303L25.4233 40.892ZM25.4793 45.82L23.7335 46.7956L23.7507 46.8264L23.7689 46.8566L25.4793 45.82ZM27.0193 47.248L26.1046 49.0266L26.1347 49.042L26.1653 49.0565L27.0193 47.248ZM31.4713 47.36L30.7383 45.4992L30.7284 45.5031L30.7186 45.5071L31.4713 47.36ZM33.1513 46.268L34.6216 44.9121L33.2361 43.4098L31.7641 44.8274L33.1513 46.268ZM35.4753 48.788L36.9761 50.1101L38.1677 48.7574L36.9456 47.4321L35.4753 48.788ZM32.8713 50.608L33.6026 52.4695L33.617 52.4639L33.6312 52.458L32.8713 50.608ZM29.2593 49.224C27.8065 49.224 26.6176 48.9412 25.638 48.4374L23.8086 51.9946C25.4424 52.8348 27.2775 53.224 29.2593 53.224V49.224ZM25.6485 48.4428C24.6582 47.9262 23.9392 47.2536 23.4325 46.4269L20.0221 48.5171C20.9341 50.0051 22.2125 51.1618 23.7982 51.9892L25.6485 48.4428ZM23.4399 46.439C22.9349 45.6018 22.6633 44.6302 22.6633 43.468H18.6633C18.6633 45.2925 19.1011 46.9902 20.0148 48.505L23.4399 46.439ZM22.6633 43.468C22.6633 42.2718 22.9328 41.2998 23.4168 40.4889L19.9819 38.4391C19.0845 39.9428 18.6633 41.6402 18.6633 43.468H22.6633ZM23.4119 40.497C23.9356 39.6288 24.6325 38.9651 25.5315 38.4809L23.6351 34.9591C22.1076 35.7816 20.8818 36.9472 19.9868 38.431L23.4119 40.497ZM25.5523 38.4696C26.4392 37.9784 27.4718 37.712 28.6993 37.712V33.712C26.8656 33.712 25.1541 34.1176 23.6143 34.9704L25.5523 38.4696ZM28.6993 37.712C29.8774 37.712 30.8707 37.9627 31.7255 38.424L33.6252 34.904C32.128 34.096 30.4706 33.712 28.6993 33.712V37.712ZM31.7588 38.4416C32.612 38.8816 33.2767 39.51 33.7788 40.3648L37.2279 38.3392C36.3486 36.842 35.128 35.6784 33.5919 34.8864L31.7588 38.4416ZM33.7859 40.3769C34.257 41.1663 34.5393 42.1867 34.5393 43.524H38.5393C38.5393 41.6133 38.131 39.8523 37.2208 38.3271L33.7859 40.3769ZM34.5393 43.524C34.5393 43.6217 34.5337 43.76 34.5183 43.9459L38.5044 44.2781C38.5263 44.016 38.5393 43.7623 38.5393 43.524H34.5393ZM34.5196 43.9309C34.5014 44.1309 34.4833 44.3209 34.4653 44.501L38.4454 44.899C38.4647 44.7058 38.484 44.5038 38.5031 44.2931L34.5196 43.9309ZM36.4553 42.7H24.2193V46.7H36.4553V42.7ZM26.2193 44.7V42.152H22.2193V44.7H26.2193ZM24.2193 44.152H34.1593V40.152H24.2193V44.152ZM33.3386 40.3282L31.6586 41.0842L33.3001 44.7318L34.9801 43.9758L33.3386 40.3282ZM34.4793 42.908C34.4793 41.851 34.2638 40.8266 33.757 39.9023L30.2497 41.8257C30.3775 42.0588 30.4793 42.397 30.4793 42.908H34.4793ZM33.757 39.9023C33.2658 39.0066 32.5651 38.2853 31.6734 37.78L29.7013 41.26C29.9296 41.3894 30.1062 41.564 30.2497 41.8257L33.757 39.9023ZM31.7163 37.805C30.803 37.257 29.7835 37.016 28.7273 37.016V41.016C29.1645 41.016 29.4517 41.111 29.6584 41.235L31.7163 37.805ZM28.7273 37.016C27.6698 37.016 26.653 37.2574 25.7351 37.7904L27.7436 41.2496C27.983 41.1106 28.2916 41.016 28.7273 41.016V37.016ZM25.7533 37.78C24.845 38.2946 24.1434 39.0383 23.6571 39.9537L27.1896 41.8303C27.3379 41.5511 27.5136 41.38 27.7254 41.26L25.7533 37.78ZM23.6697 39.9303C23.1593 40.8611 22.9473 41.8973 22.9473 42.964H26.9473C26.9473 42.4254 27.0527 42.0802 27.177 41.8537L23.6697 39.9303ZM22.9473 42.964V43.636H26.9473V42.964H22.9473ZM22.9473 43.636C22.9473 44.7539 23.1915 45.8258 23.7335 46.7956L27.2252 44.8444C27.0579 44.5449 26.9473 44.1608 26.9473 43.636H22.9473ZM23.7689 46.8566C24.3378 47.7953 25.1295 48.5251 26.1046 49.0266L27.934 45.4694C27.6025 45.2989 27.3675 45.0767 27.1897 44.7834L23.7689 46.8566ZM26.1653 49.0565C27.1536 49.5232 28.2398 49.724 29.3713 49.724V45.724C28.7109 45.724 28.2291 45.6075 27.8734 45.4395L26.1653 49.0565ZM29.3713 49.724C30.371 49.724 31.337 49.5733 32.2241 49.2129L30.7186 45.5071C30.4111 45.632 29.977 45.724 29.3713 45.724V49.724ZM32.2044 49.2208C33.0775 48.8769 33.857 48.365 34.5386 47.7086L31.7641 44.8274C31.4377 45.1416 31.0972 45.3578 30.7383 45.4992L32.2044 49.2208ZM31.6811 47.6239L34.0051 50.1439L36.9456 47.4321L34.6216 44.9121L31.6811 47.6239ZM33.9746 47.4659C33.5033 48.0009 32.8962 48.4357 32.1115 48.758L33.6312 52.458C34.9371 51.9217 36.066 51.1431 36.9761 50.1101L33.9746 47.4659ZM32.14 48.7465C31.3715 49.0484 30.4236 49.224 29.2593 49.224V53.224C30.8204 53.224 32.2805 52.9889 33.6026 52.4695L32.14 48.7465ZM41.6874 51H39.6874V53H41.6874V51ZM41.6874 35.936V33.936H39.6874V35.936H41.6874ZM45.8594 35.936H47.8594V33.936H45.8594V35.936ZM45.8594 40.192L44.0544 41.0535L47.8594 40.192H45.8594ZM45.2714 38.96L43.4281 38.1839L43.0798 39.0113L43.4664 39.8215L45.2714 38.96ZM47.4274 36.552L48.3874 38.3065L48.4001 38.2996L48.4126 38.2925L47.4274 36.552ZM51.0394 35.712H53.0394V33.712H51.0394V35.712ZM51.0394 39.744L50.8404 41.7341L53.0394 41.954V39.744H51.0394ZM50.5354 39.716L50.2873 41.7006L50.4109 41.716H50.5354V39.716ZM47.1474 40.724L48.504 42.1936L48.5055 42.1922L47.1474 40.724ZM46.0554 51V53H48.0554V51H46.0554ZM43.6874 51V35.936H39.6874V51H43.6874ZM41.6874 37.936H45.8594V33.936H41.6874V37.936ZM43.8594 35.936V40.192H47.8594V35.936H43.8594ZM47.6644 39.3305L47.0764 38.0985L43.4664 39.8215L44.0544 41.0535L47.6644 39.3305ZM47.1147 39.7361C47.3918 39.078 47.8047 38.6254 48.3874 38.3065L46.4674 34.7975C45.0715 35.5613 44.047 36.714 43.4281 38.1839L47.1147 39.7361ZM48.4126 38.2925C49.0356 37.9399 49.8815 37.712 51.0394 37.712V33.712C49.3599 33.712 47.7979 34.0441 46.4422 34.8115L48.4126 38.2925ZM49.0394 35.712V39.744H53.0394V35.712H49.0394ZM51.2384 37.7539C51.0015 37.7302 50.7655 37.716 50.5354 37.716V41.716C50.604 41.716 50.704 41.7204 50.8404 41.7341L51.2384 37.7539ZM50.7835 37.7314C50.543 37.7014 50.3009 37.688 50.0594 37.688V41.688C50.1539 41.688 50.2291 41.6933 50.2873 41.7006L50.7835 37.7314ZM50.0594 37.688C48.4548 37.688 46.969 38.1646 45.7893 39.2558L48.5055 42.1922C48.8191 41.9021 49.2747 41.688 50.0594 41.688V37.688ZM45.7908 39.2544C44.4967 40.4489 44.0554 42.1476 44.0554 43.888H48.0554C48.0554 42.7537 48.3421 42.3431 48.504 42.1936L45.7908 39.2544ZM44.0554 43.888V51H48.0554V43.888H44.0554ZM46.0554 49H41.6874V53H46.0554V49ZM55.904 51H53.904V53H55.904V51ZM55.904 35.936V33.936H53.904V35.936H55.904ZM60.076 35.936H62.076V33.936H60.076V35.936ZM60.076 40.192L58.271 41.0535L62.076 40.192H60.076ZM59.488 38.96L57.6447 38.1839L57.2963 39.0113L57.683 39.8215L59.488 38.96ZM61.644 36.552L62.604 38.3065L62.6166 38.2996L62.6292 38.2925L61.644 36.552ZM65.256 35.712H67.256V33.712H65.256V35.712ZM65.256 39.744L65.057 41.7341L67.256 41.954V39.744H65.256ZM64.752 39.716L64.5039 41.7006L64.6275 41.716H64.752V39.716ZM61.364 40.724L62.7205 42.1936L62.7221 42.1922L61.364 40.724ZM60.272 51V53H62.272V51H60.272ZM57.904 51V35.936H53.904V51H57.904ZM55.904 37.936H60.076V33.936H55.904V37.936ZM58.076 35.936V40.192H62.076V35.936H58.076ZM61.8809 39.3305L61.2929 38.0985L57.683 39.8215L58.271 41.0535L61.8809 39.3305ZM61.3312 39.7361C61.6083 39.078 62.0212 38.6254 62.604 38.3065L60.6839 34.7975C59.288 35.5613 58.2636 36.714 57.6447 38.1839L61.3312 39.7361ZM62.6292 38.2925C63.2522 37.9399 64.0981 37.712 65.256 37.712V33.712C63.5765 33.712 62.0144 34.0441 60.6588 34.8115L62.6292 38.2925ZM63.256 35.712V39.744H67.256V35.712H63.256ZM65.455 37.7539C65.2181 37.7302 64.982 37.716 64.752 37.716V41.716C64.8206 41.716 64.9205 41.7204 65.057 41.7341L65.455 37.7539ZM65 37.7314C64.7596 37.7014 64.5175 37.688 64.276 37.688V41.688C64.3704 41.688 64.4457 41.6933 64.5039 41.7006L65 37.7314ZM64.276 37.688C62.6714 37.688 61.1856 38.1646 60.0059 39.2558L62.7221 42.1922C63.0357 41.9021 63.4912 41.688 64.276 41.688V37.688ZM60.0074 39.2544C58.7133 40.4489 58.272 42.1476 58.272 43.888H62.272C62.272 42.7537 62.5586 42.3431 62.7205 42.1936L60.0074 39.2544ZM58.272 43.888V51H62.272V43.888H58.272ZM60.272 49H55.904V53H60.272V49ZM73.1986 50.496L72.3041 52.2849L72.3109 52.2882L72.3177 52.2916L73.1986 50.496ZM70.9306 48.284L69.1686 49.2303L69.1723 49.2372L69.176 49.244L70.9306 48.284ZM70.1186 35.936V33.936H68.1186V35.936H70.1186ZM74.4866 35.936H76.4866V33.936H74.4866V35.936ZM75.2706 46.576L73.7654 47.893L73.7873 47.918L73.81 47.9423L75.2706 46.576ZM79.3306 47.024L80.275 48.787L80.2991 48.774L80.3228 48.7605L79.3306 47.024ZM80.5626 45.68L82.3514 46.5744L82.3569 46.5635L82.3622 46.5525L80.5626 45.68ZM81.0106 35.936V33.936H79.0106V35.936H81.0106ZM85.3786 35.936H87.3786V33.936H85.3786V35.936ZM85.3786 51V53H87.3786V51H85.3786ZM81.2346 51H79.2346V53H81.2346V51ZM81.2346 46.856L82.9283 45.7925L79.2346 39.9098V46.856H81.2346ZM81.9906 48.06L83.7921 48.9286L84.2722 47.9327L83.6843 46.9965L81.9906 48.06ZM79.7506 50.44L80.6988 52.201L80.7106 52.1945L79.7506 50.44ZM76.5586 49.224C75.5718 49.224 74.7597 49.0341 74.0794 48.7004L72.3177 52.2916C73.6161 52.9285 75.0439 53.224 76.5586 53.224V49.224ZM74.093 48.7071C73.5016 48.4115 73.039 47.9707 72.6851 47.324L69.176 49.244C69.9048 50.5759 70.9542 51.6099 72.3041 52.2849L74.093 48.7071ZM72.6926 47.3377C72.353 46.7054 72.1186 45.7789 72.1186 44.448H68.1186C68.1186 46.2158 68.4255 47.8466 69.1686 49.2303L72.6926 47.3377ZM72.1186 44.448V35.936H68.1186V44.448H72.1186ZM70.1186 37.936H74.4866V33.936H70.1186V37.936ZM72.4866 35.936V43.804H76.4866V35.936H72.4866ZM72.4866 43.804C72.4866 45.2741 72.7843 46.7717 73.7654 47.893L76.7757 45.259C76.7115 45.1856 76.4866 44.8352 76.4866 43.804H72.4866ZM73.81 47.9423C74.8122 49.0136 76.1482 49.444 77.5386 49.444V45.444C76.9876 45.444 76.8116 45.2958 76.7311 45.2097L73.81 47.9423ZM77.5386 49.444C78.4956 49.444 79.425 49.2423 80.275 48.787L78.3861 45.261C78.1908 45.3657 77.9255 45.444 77.5386 45.444V49.444ZM80.3228 48.7605C81.2253 48.2448 81.8962 47.4848 82.3514 46.5744L78.7737 44.7856C78.6316 45.0699 78.4811 45.2059 78.3383 45.2875L80.3228 48.7605ZM82.3622 46.5525C82.8293 45.5891 83.0106 44.5041 83.0106 43.384H79.0106C79.0106 44.0933 78.8932 44.5389 78.7629 44.8075L82.3622 46.5525ZM83.0106 43.384V35.936H79.0106V43.384H83.0106ZM81.0106 37.936H85.3786V33.936H81.0106V37.936ZM83.3786 35.936V51H87.3786V35.936H83.3786ZM85.3786 49H81.2346V53H85.3786V49ZM83.2346 51V46.856H79.2346V51H83.2346ZM79.5408 47.9195L80.2968 49.1235L83.6843 46.9965L82.9283 45.7925L79.5408 47.9195ZM80.189 47.1914C79.8606 47.8725 79.4026 48.3506 78.7905 48.6855L80.7106 52.1945C82.0772 51.4468 83.1125 50.3381 83.7921 48.9286L80.189 47.1914ZM78.8024 48.6791C78.1378 49.0369 77.402 49.224 76.5586 49.224V53.224C78.0298 53.224 79.422 52.8884 80.6988 52.2009L78.8024 48.6791ZM114.121 36.44L113.184 38.2067L113.205 38.218L113.227 38.2289L114.121 36.44ZM116.305 38.624L114.537 39.5582L114.547 39.5783L114.558 39.5981L116.305 38.624ZM117.117 51V53H119.117V51H117.117ZM112.749 51H110.749V53H112.749V51ZM111.993 40.36L113.501 39.0464V39.0464L111.993 40.36ZM108.157 39.94L109.129 41.6883L109.153 41.6748L109.177 41.6606L108.157 39.94ZM106.981 41.228L108.782 42.0991L106.981 41.228ZM106.561 51V53H108.561V51H106.561ZM102.193 51H100.193V53H102.193V51ZM101.437 40.36L99.9048 41.6452L99.9168 41.6595L99.9291 41.6736L101.437 40.36ZM97.6292 39.94L98.6005 41.6883L98.6249 41.6748L98.6488 41.6606L97.6292 39.94ZM96.4532 41.228L98.2535 42.0991L96.4532 41.228ZM96.0332 51V53H98.0332V51H96.0332ZM91.6652 51H89.6652V53H91.6652V51ZM91.6652 35.936V33.936H89.6652V35.936H91.6652ZM95.8372 35.936H97.8372V33.936H95.8372V35.936ZM95.8372 40.052L94.1612 41.1433L97.8372 46.7886V40.052H95.8372ZM95.0532 38.848L93.2709 37.9406L92.7465 38.9707L93.3772 39.9393L95.0532 38.848ZM97.2652 36.524L98.2278 38.2772L98.2393 38.2707L97.2652 36.524ZM104.181 36.776L103.044 38.4215L103.061 38.4332L103.079 38.4447L104.181 36.776ZM106.253 39.968L105.727 41.8975L108.965 42.7805L108.201 39.5127L106.253 39.968ZM104.713 39.548L102.875 38.7602L101.97 40.8728L104.187 41.4775L104.713 39.548ZM107.121 36.748L106.071 35.0457L106.065 35.0496L106.059 35.0536L107.121 36.748ZM110.957 37.712C111.876 37.712 112.599 37.8966 113.184 38.2067L115.059 34.6733C113.814 34.0127 112.428 33.712 110.957 33.712V37.712ZM113.227 38.2289C113.759 38.4951 114.194 38.9098 114.537 39.5582L118.074 37.6898C117.371 36.3595 116.35 35.3183 115.016 34.6511L113.227 38.2289ZM114.558 39.5981C114.883 40.1797 115.117 41.0637 115.117 42.376H119.117C119.117 40.6269 118.81 39.0097 118.052 37.6499L114.558 39.5981ZM115.117 42.376V51H119.117V42.376H115.117ZM117.117 49H112.749V53H117.117V49ZM114.749 51V43.048H110.749V51H114.749ZM114.749 43.048C114.749 41.6179 114.462 40.1493 113.501 39.0464L110.485 41.6736C110.532 41.728 110.749 42.0515 110.749 43.048H114.749ZM113.501 39.0464C112.544 37.9475 111.236 37.492 109.865 37.492V41.492C110.323 41.492 110.434 41.6151 110.485 41.6736L113.501 39.0464ZM109.865 37.492C108.903 37.492 107.976 37.7227 107.138 38.2194L109.177 41.6606C109.347 41.56 109.558 41.492 109.865 41.492V37.492ZM107.186 38.1917C106.281 38.6945 105.619 39.4519 105.181 40.3569L108.782 42.0991C108.904 41.8468 109.026 41.7455 109.129 41.6883L107.186 38.1917ZM105.181 40.3569C104.728 41.2923 104.561 42.3538 104.561 43.44H108.561C108.561 42.7341 108.674 42.321 108.782 42.0991L105.181 40.3569ZM104.561 43.44V51H108.561V43.44H104.561ZM106.561 49H102.193V53H106.561V49ZM104.193 51V43.048H100.193V51H104.193ZM104.193 43.048C104.193 41.6179 103.906 40.1493 102.945 39.0464L99.9291 41.6736C99.9765 41.728 100.193 42.0515 100.193 43.048H104.193ZM102.97 39.0748C102.024 37.9475 100.706 37.492 99.3372 37.492V41.492C99.7977 41.492 99.8796 41.6151 99.9048 41.6452L102.97 39.0748ZM99.3372 37.492C98.3747 37.492 97.4478 37.7227 96.6096 38.2194L98.6488 41.6606C98.8186 41.56 99.0304 41.492 99.3372 41.492V37.492ZM96.6579 38.1917C95.7529 38.6945 95.0908 39.4519 94.6529 40.3569L98.2535 42.0991C98.3756 41.8468 98.4975 41.7455 98.6005 41.6883L96.6579 38.1917ZM94.6529 40.3569C94.2003 41.2923 94.0332 42.3538 94.0332 43.44H98.0332C98.0332 42.7341 98.1462 42.321 98.2535 42.0991L94.6529 40.3569ZM94.0332 43.44V51H98.0332V43.44H94.0332ZM96.0332 49H91.6652V53H96.0332V49ZM93.6652 51V35.936H89.6652V51H93.6652ZM91.6652 37.936H95.8372V33.936H91.6652V37.936ZM93.8372 35.936V40.052H97.8372V35.936H93.8372ZM97.5132 38.9607L96.7292 37.7567L93.3772 39.9393L94.1612 41.1433L97.5132 38.9607ZM96.8355 39.7554C97.1877 39.0636 97.6496 38.5946 98.2277 38.2772L96.3027 34.7708C94.9768 35.4988 93.9641 36.5791 93.2709 37.9406L96.8355 39.7554ZM98.2393 38.2707C98.8808 37.913 99.6404 37.712 100.569 37.712V33.712C99.034 33.712 97.5909 34.0524 96.2911 34.7773L98.2393 38.2707ZM100.569 37.712C101.59 37.712 102.387 37.9675 103.044 38.4215L105.318 35.1305C103.922 34.1658 102.311 33.712 100.569 33.712V37.712ZM103.079 38.4447C103.623 38.8043 104.064 39.3889 104.306 40.4233L108.201 39.5127C107.771 37.6724 106.83 36.129 105.284 35.1073L103.079 38.4447ZM106.779 38.0385L105.239 37.6185L104.187 41.4775L105.727 41.8975L106.779 38.0385ZM106.552 40.3358C106.892 39.5403 107.421 38.9205 108.184 38.4424L106.059 35.0536C104.618 35.9568 103.542 37.2037 102.875 38.7602L106.552 40.3358ZM108.171 38.4503C108.947 37.9721 109.855 37.712 110.957 37.712V33.712C109.185 33.712 107.536 34.1426 106.071 35.0457L108.171 38.4503Z" fill="white"/>
</svg>
